<svg width="56" height="56" viewBox="0 0 56 56" fill="none" xmlns="http://www.w3.org/2000/svg">
<path d="M50.4 33.6C50.4 30.881 50.3936 29.1227 50.2195 27.8277C50.0562 26.6138 49.7928 26.2334 49.5797 26.0203C49.3666 25.8072 48.9862 25.5438 47.7723 25.3805C46.4772 25.2064 44.719 25.2 42 25.2H36.4C33.681 25.2 31.9227 25.2064 30.6277 25.3805C29.4138 25.5438 29.0334 25.8072 28.8203 26.0203C28.6072 26.2334 28.3438 26.6138 28.1805 27.8277C28.0064 29.1227 28 30.881 28 33.6V42C28 44.719 28.0064 46.4772 28.1805 47.7723C28.3438 48.9862 28.6072 49.3666 28.8203 49.5797C29.0334 49.7928 29.4138 50.0562 30.6277 50.2195C31.9227 50.3936 33.681 50.4 36.4 50.4H42C44.719 50.4 46.4772 50.3936 47.7723 50.2195C48.9862 50.0562 49.3666 49.7928 49.5797 49.5797C49.7928 49.3666 50.0562 48.9862 50.2195 47.7723C50.3936 46.4772 50.4 44.719 50.4 42V33.6ZM1.58397e-05 24.3605V14C1.58397e-05 11.4393 -0.0062366 9.23616 0.229703 7.48126C0.476532 5.64613 1.03413 3.88778 2.46095 2.46095C3.88778 1.03413 5.64613 0.476532 7.48126 0.229703C9.23616 -0.0062366 11.4393 1.58397e-05 14 1.58397e-05H24.3605L26.6602 0.0109533C27.3658 0.0231481 28.0104 0.0499397 28.5906 0.101188C29.7891 0.207139 30.9784 0.441352 32.1043 1.07189L32.5992 1.37267C33.7286 2.11179 34.6658 3.11316 35.3281 4.29572L35.5469 4.71954C36.016 5.71794 36.2061 6.76034 36.2988 7.80939C36.4014 8.97053 36.4 10.39 36.4 12.0395H30.8C30.8 10.2893 30.7965 9.15913 30.7207 8.30157C30.6663 7.68661 30.5859 7.36345 30.5129 7.17775L30.4418 7.03282C30.2525 6.69485 29.9964 6.40097 29.6898 6.16876L29.3672 5.95822C29.218 5.87473 28.9187 5.75183 28.0984 5.67931C27.6697 5.64142 27.1729 5.62107 26.5645 5.61095L24.3605 5.60001H14C11.281 5.60001 9.52276 5.60637 8.22775 5.78048C7.01381 5.94377 6.63343 6.20722 6.42032 6.42032C6.20722 6.63343 5.94377 7.01381 5.78048 8.22775C5.60637 9.52276 5.60001 11.281 5.60001 14V24.3605C5.60001 26.1107 5.60352 27.2409 5.67931 28.0984C5.75183 28.9187 5.87473 29.218 5.95822 29.3672L6.16876 29.6898C6.40097 29.9964 6.69485 30.2525 7.03282 30.4418L7.17775 30.5129C7.36345 30.5859 7.68661 30.6663 8.30157 30.7207C9.15913 30.7965 10.2893 30.8 12.0395 30.8V36.4C10.39 36.4 8.97053 36.4014 7.80939 36.2988C6.76034 36.2061 5.71794 36.016 4.71954 35.5469L4.29572 35.3281C3.11316 34.6658 2.11179 33.7286 1.37267 32.5992L1.07189 32.1043C0.441352 30.9784 0.207139 29.7891 0.101188 28.5906C-0.001376 27.4295 1.52757e-05 26.01 1.58397e-05 24.3605ZM56 42C56 44.5607 56.0062 46.7638 55.7703 48.5187C55.5235 50.3539 54.9659 52.1122 53.539 53.539C52.1122 54.9659 50.3539 55.5235 48.5187 55.7703C46.7638 56.0062 44.5607 56 42 56H36.4C33.8393 56 31.6361 56.0062 29.8812 55.7703C28.0461 55.5235 26.2878 54.9659 24.8609 53.539C23.4341 52.1122 22.8765 50.3539 22.6297 48.5187C22.3937 46.7638 22.4 44.5607 22.4 42V33.6C22.4 31.0393 22.3937 28.8361 22.6297 27.0812C22.8765 25.2461 23.4341 23.4878 24.8609 22.0609C26.2878 20.6341 28.0461 20.0765 29.8812 19.8297C31.6361 19.5938 33.8393 19.6 36.4 19.6H42C44.5607 19.6 46.7638 19.5938 48.5187 19.8297C50.3539 20.0765 52.1122 20.6341 53.539 22.0609C54.9659 23.4878 55.5235 25.2461 55.7703 27.0812C56.0062 28.8361 56 31.0393 56 33.6V42Z" fill="#04051F"/>
</svg>
