<svg width="31" height="23" viewBox="0 0 31 23" fill="none" xmlns="http://www.w3.org/2000/svg">
<path d="M0.0227051 6.8193C0 7.7049 0 8.71003 0 9.85714V13.1429C0 17.7899 0 20.113 1.51325 21.5561C3.0265 23 5.46225 23 10.3333 23H20.6667C25.5377 23 27.9735 23 29.4867 21.5561C31 20.113 31 17.7899 31 13.1429V9.85714C31 9.22262 31 8.63062 30.9962 8.07872C30.9929 7.63351 30.9874 7.21477 30.9773 6.8193L17.1734 14.136C16.1984 14.6526 15.0249 14.6846 14.025 14.2322L13.8266 14.136L0.0227051 6.8193ZM0.418362 3.33545C0.505819 3.35631 0.592855 3.38438 0.677789 3.41888L0.835883 3.49268L15.5 11.2642L30.1641 3.49268C30.2987 3.42128 30.4391 3.36914 30.5816 3.33465C30.358 2.55654 30.014 1.94688 29.4867 1.44392C27.9735 0 25.5377 0 20.6667 0H10.3333C5.46225 0 3.0265 0 1.51325 1.44392C1.20085 1.74152 0.952772 2.07764 0.755995 2.46268C0.620605 2.7282 0.509603 3.01779 0.418362 3.33545Z" fill="white"/>
</svg>
