<svg width="32" height="32" viewBox="0 0 32 32" fill="none" xmlns="http://www.w3.org/2000/svg">
<g clip-path="url(#clip0_1_105)">
<path fill-rule="evenodd" clip-rule="evenodd" d="M27.0806 4.51425C16.5814 -5.89183 -1.68125 2.98711 0.125651 17.9586C0.387732 20.1336 1.91508 23.1078 1.75928 24.5199C1.48847 26.9744 0.913348 29.5686 0.775028 31.9867C3.05367 31.7086 5.60167 31.186 7.84683 30.7755C10.0104 30.3795 12.1551 31.764 14.6478 31.9503C29.4364 33.0582 37.9686 15.3061 27.0806 4.51425ZM10.3191 28.0997C9.00872 27.5494 5.76183 28.4418 4.09762 28.6325C4.1879 26.7793 5.09498 23.8939 4.2607 22.3333C-2.78781 9.16845 13.8863 -4.00511 25.249 6.3471C35.4919 15.6803 25.2752 34.3786 10.3191 28.0997Z" fill="white"/>
<path fill-rule="evenodd" clip-rule="evenodd" d="M21.8953 23.5242C19.3022 25.5885 13.5 21.1585 12.3731 20.055C4.05349 11.9171 10.7467 6.31804 12.1343 9.45675C13.1957 11.8559 13.2321 12.9376 11.4107 14.7151L18.149 20.6752C20.0287 19.3926 19.7259 17.8058 22.3758 19.7202C24.3385 21.1367 23.5362 22.2183 21.8953 23.5242Z" fill="white"/>
</g>
<defs>
<clipPath id="clip0_1_105">
<rect width="32" height="32" fill="white"/>
</clipPath>
</defs>
</svg>
