<svg width="32" height="32" viewBox="0 0 32 32" fill="none" xmlns="http://www.w3.org/2000/svg">
<g clip-path="url(#clip0_1_108)">
<path fill-rule="evenodd" clip-rule="evenodd" d="M16 0C7.16736 0 0 7.16736 0 16C0 24.8326 7.16736 32 16 32C24.8326 32 32 24.8326 32 16C32 7.16736 24.8326 0 16 0ZM23.4072 10.8709C23.1674 13.4022 22.1282 19.5437 21.5953 22.368C21.3689 23.567 20.9292 23.9667 20.5029 24.0067C19.5704 24.0866 18.8643 23.3938 17.9717 22.8077C16.5595 21.8884 15.7735 21.3156 14.4013 20.4097C12.816 19.3705 13.8418 18.7977 14.7477 17.8651C14.9875 17.6253 19.0774 13.8951 19.1574 13.562C19.1707 13.5221 19.1707 13.3622 19.0774 13.2823C18.9842 13.2023 18.851 13.229 18.7444 13.2556C18.5978 13.2823 16.3597 14.7744 12.0033 17.7186C11.3639 18.1582 10.791 18.3714 10.2714 18.358C9.69858 18.3447 8.60616 18.0383 7.78018 17.7719C6.78102 17.4521 5.98168 17.2789 6.04829 16.7194C6.08826 16.4263 6.48793 16.1332 7.23397 15.8268C11.8968 13.8018 15.0008 12.4563 16.5595 11.8035C20.9958 9.95171 21.9284 9.63197 22.5279 9.61865C22.6611 9.61865 22.9542 9.6453 23.154 9.80516C23.3139 9.93838 23.3539 10.1116 23.3805 10.2448C23.4072 10.378 23.4338 10.6578 23.4072 10.8709Z" fill="white"/>
</g>
<defs>
<clipPath id="clip0_1_108">
<rect width="32" height="32" fill="white"/>
</clipPath>
</defs>
</svg>
