<svg width="60" height="70" viewBox="0 0 60 70" fill="none" xmlns="http://www.w3.org/2000/svg">
<circle cx="30" cy="30" r="29" fill="white" stroke="#215BFA" stroke-width="2"/>
<path d="M40.54 28.7031C42.5146 34.4149 40.54 41.2438 40.54 41.2438C40.54 41.2438 38.6822 48.1036 30.0359 48.3656H29.9811C21.3349 48.1036 19.477 41.2438 19.477 41.2438C19.477 41.2438 17.4119 35.4963 19.9534 28.7031" fill="white"/>
<path d="M19.0833 28.3779C19.2631 27.8974 19.7983 27.6536 20.2788 27.8334C20.7593 28.0131 21.0031 28.5484 20.8234 29.0289C19.6122 32.2664 19.4978 35.257 19.6875 37.4408C19.7823 38.5319 19.9527 39.4171 20.0976 40.0243C20.17 40.3277 20.2358 40.561 20.2824 40.7151C20.3057 40.7922 20.3241 40.8493 20.3361 40.8856C20.3421 40.9037 20.3465 40.9165 20.3491 40.924C20.3502 40.9272 20.351 40.9294 20.3514 40.9306C20.3594 40.9529 20.3665 40.9755 20.3728 40.9984L20.3745 41.0042C20.3766 41.0115 20.3806 41.025 20.3866 41.0441C20.3986 41.0825 20.4186 41.1438 20.4477 41.2248C20.5061 41.3869 20.6007 41.6269 20.7405 41.9195C21.0208 42.506 21.4785 43.295 22.1826 44.0914C23.5715 45.6623 25.9591 47.3114 29.9966 47.437H30.0203C34.0579 47.3114 36.4455 45.6623 37.8344 44.0914C38.5385 43.295 38.9962 42.506 39.2765 41.9195C39.4163 41.6269 39.5109 41.3869 39.5692 41.2248C39.5984 41.1438 39.6184 41.0825 39.6304 41.0441C39.6364 41.025 39.6404 41.0115 39.6425 41.0042L39.6442 40.9984C39.6452 40.9944 39.6464 40.9905 39.6475 40.9865C39.6476 40.9862 39.6478 40.9856 39.6481 40.9845C39.6487 40.9824 39.6497 40.9786 39.6512 40.9732C39.6543 40.9625 39.659 40.9454 39.6653 40.9222C39.678 40.8758 39.6968 40.8048 39.7205 40.7113C39.7679 40.5243 39.8345 40.2472 39.9088 39.8956C40.0577 39.1916 40.2369 38.1928 40.3563 37.0214C40.5969 34.6619 40.5863 31.6806 39.662 29.0069L41.418 28.3999C42.4683 31.438 42.4577 34.727 42.2046 37.2099C42.0772 38.4597 41.8862 39.5251 41.7265 40.28C41.6466 40.6578 41.5744 40.9589 41.5215 41.1676C41.495 41.272 41.4734 41.3534 41.4581 41.4097C41.4504 41.4379 41.4443 41.4599 41.44 41.4753C41.4378 41.4831 41.4361 41.4892 41.4348 41.4937C41.4345 41.4947 41.4342 41.4956 41.434 41.4964C41.4337 41.4975 41.4334 41.4988 41.433 41.5001C41.4313 41.5062 41.4291 41.514 41.4264 41.5233C41.4209 41.542 41.4134 41.5671 41.4037 41.5982C41.3843 41.6604 41.3559 41.7468 41.3173 41.8539C41.2403 42.068 41.1222 42.3659 40.9528 42.7205C40.6145 43.4285 40.0673 44.3707 39.2262 45.3221C37.5393 47.2299 34.7097 49.1252 30.1715 49.2908L30.064 49.2944C30.0546 49.2947 30.0453 49.2949 30.0359 49.2949H29.9811C29.9764 49.2949 29.9717 49.2948 29.967 49.2947L29.953 49.2944C25.3519 49.155 22.4909 47.245 20.7908 45.3221C19.9496 44.3707 19.4025 43.4285 19.0642 42.7205C18.8947 42.3659 18.7767 42.068 18.6996 41.8539C18.6611 41.7468 18.6327 41.6604 18.6133 41.5982C18.6038 41.5677 18.5964 41.543 18.591 41.5245C18.5862 41.5105 18.58 41.4923 18.5726 41.4702C18.5556 41.4189 18.5322 41.3459 18.504 41.2526C18.4476 41.0658 18.3719 40.7971 18.2904 40.4555C18.1275 39.7727 17.9404 38.7965 17.8366 37.6016C17.6292 35.2133 17.753 31.9336 19.0833 28.3779ZM20.3515 40.931C20.3516 40.9313 20.3517 40.9314 20.3517 40.9315C20.3517 40.9315 20.3516 40.9313 20.3516 40.9311C20.3515 40.9309 20.3515 40.9308 20.3514 40.9306L20.3515 40.931ZM40.2365 27.8255C40.7214 27.6578 41.2503 27.915 41.418 28.3999L39.662 29.0069C39.4944 28.522 39.7516 27.9931 40.2365 27.8255Z" fill="#215BFA"/>
<path d="M41.3738 30.7397C42.6004 30.9374 48.0693 36.0084 42.0169 43.3875C41.9811 43.4828 38.5584 40.8008 38.051 36.4062" fill="white"/>
<path d="M40.4565 30.5921C40.5381 30.0856 41.0149 29.7411 41.5214 29.8228L41.538 29.8255C41.8862 29.8857 42.2342 30.0739 42.5209 30.2672C42.8379 30.4809 43.1789 30.7688 43.5145 31.1203C44.1856 31.823 44.8721 32.8186 45.3029 34.0678C46.1821 36.6167 45.9398 40.0441 42.7734 43.9297C42.5638 44.2276 42.2362 44.3069 42.0705 44.3173C41.8947 44.3282 41.7601 44.286 41.7203 44.2732C41.6183 44.2405 41.5399 44.1963 41.5117 44.1803C41.4371 44.1377 41.3639 44.0863 41.3029 44.041C41.1729 43.9444 41.0091 43.8084 40.8248 43.6391C40.454 43.2984 39.9697 42.795 39.4727 42.145C38.4818 40.849 37.4065 38.9252 37.128 36.5129L38.9736 36.2998C39.2025 38.2821 40.0923 39.8966 40.9486 41.0165C41.2796 41.4495 41.6006 41.8017 41.8665 42.0653C44.1506 38.9322 44.1458 36.4107 43.5466 34.6737C43.2135 33.708 42.6811 32.9376 42.1709 32.4033C41.9158 32.1363 41.6756 31.9379 41.4824 31.8077C41.2908 31.6785 41.202 31.6542 41.2143 31.6552L41.2258 31.657C40.7193 31.5753 40.3749 31.0986 40.4565 30.5921ZM41.335 42.7538C41.2641 42.8297 41.2012 42.9245 41.1543 43.0425C41.1896 42.9543 41.2382 42.8721 41.2984 42.7986L41.335 42.7538ZM37.9443 35.4836C38.454 35.4247 38.9148 35.7902 38.9736 36.2998L37.128 36.5129C37.0692 36.0033 37.4347 35.5424 37.9443 35.4836Z" fill="#215BFA"/>
<path d="M18.8434 30.6421C17.6167 30.8398 11.9478 36.0085 18.0002 43.3876C18.0359 43.4829 21.4587 40.8009 21.966 36.4063" fill="white"/>
<path d="M18.7196 29.7214C19.2171 29.6541 19.6804 29.9957 19.7608 30.4943C19.8424 31.0008 19.4979 31.4775 18.9915 31.5592C19.039 31.5515 18.9513 31.5632 18.7242 31.7154C18.524 31.8496 18.2749 32.0532 18.0098 32.3263C17.4791 32.873 16.9218 33.6588 16.5654 34.6391C15.925 36.401 15.8805 38.938 18.1512 42.0645C18.417 41.8011 18.7378 41.449 19.0686 41.0164C19.9249 39.8965 20.8146 38.282 21.0435 36.2997L21.0465 36.2759C21.1167 35.7787 21.5711 35.4255 22.0728 35.4834C22.5825 35.5423 22.9479 36.0031 22.8891 36.5128L22.8824 36.5692C22.5938 38.9551 21.5276 40.859 20.5445 42.1448C20.0474 42.7949 19.5631 43.2983 19.1923 43.639C19.008 43.8083 18.8443 43.9443 18.7143 44.0409C18.6533 44.0862 18.58 44.1376 18.5054 44.1801C18.4772 44.1962 18.3988 44.2404 18.2968 44.2731C18.257 44.2858 18.1224 44.3281 17.9467 44.3171C17.7809 44.3068 17.4532 44.2274 17.2437 43.9295C14.0699 40.0342 13.885 36.5748 14.8194 34.0044C15.277 32.7455 15.9887 31.7409 16.6768 31.0322C17.021 30.6777 17.3687 30.3874 17.6898 30.1722C17.9838 29.9751 18.3416 29.782 18.6958 29.725L18.7196 29.7214ZM18.7187 42.7984L18.7307 42.8133C18.7854 42.883 18.8299 42.9601 18.8629 43.0424C18.816 42.9244 18.7531 42.8296 18.6822 42.7536L18.7187 42.7984Z" fill="#215BFA"/>
<path d="M38.3274 32.338C38.3274 32.338 43.5128 30.9065 43.4056 24.9875C43.3579 22.4389 42.1146 20.0927 40.109 18.5778C37.9534 16.951 35.4072 15.8434 32.7442 15.3932C29.3929 14.8264 25.8701 15.3075 22.7927 16.7485C21.3374 17.4298 19.9678 18.3325 18.8769 19.5139C17.6264 20.8692 16.8546 22.5175 16.6569 24.3515C16.6331 24.5635 16.6212 24.7731 16.6165 24.9851C16.5069 30.9041 21.6946 32.3356 21.6946 32.3356" fill="white"/>
<path d="M22.3989 15.9072C25.647 14.3863 29.3612 13.8789 32.8991 14.4774L32.8991 14.4773C35.6891 14.949 38.3538 16.1029 40.6153 17.7963L40.6686 17.8364L40.6689 17.8366C42.8768 19.5044 44.2595 22.0861 44.3328 24.9036L44.3343 24.9702L44.3344 24.9707C44.3937 28.2486 42.971 30.3387 41.5106 31.5882C40.7912 32.2038 40.0708 32.6101 39.5296 32.8633C39.2581 32.9903 39.0288 33.0802 38.8632 33.1395C38.7803 33.1692 38.7131 33.1913 38.6642 33.2067C38.6397 33.2144 38.6198 33.2204 38.6047 33.2248C38.5972 33.227 38.5909 33.2289 38.5859 33.2303C38.5834 33.231 38.5812 33.2317 38.5793 33.2322C38.5783 33.2325 38.5775 33.2327 38.5767 33.2329C38.5763 33.233 38.5758 33.2332 38.5756 33.2332C38.5751 33.2333 38.5746 33.2335 38.3274 32.338C38.3179 32.3036 38.3087 32.2705 38.2999 32.2386L38.5746 33.2335C38.08 33.37 37.5685 33.0798 37.4319 32.5852C37.2976 32.0984 37.5767 31.5951 38.0571 31.4493L38.0793 31.4428C38.0792 31.4429 38.0788 31.443 38.0785 31.443C38.0781 31.4432 38.0777 31.4433 38.0774 31.4434C38.0767 31.4435 38.0764 31.4436 38.0764 31.4437C38.0764 31.4436 38.0776 31.4433 38.0798 31.4427C38.0843 31.4413 38.0936 31.4386 38.107 31.4343C38.134 31.4258 38.1781 31.4114 38.2368 31.3904C38.3543 31.3483 38.5293 31.2801 38.7422 31.1805C39.17 30.9803 39.7392 30.6588 40.3027 30.1766C41.4082 29.2307 42.5245 27.6457 42.4768 25.0049L42.4756 24.9521C42.4175 22.7187 41.3211 20.6577 39.5494 19.3193L39.5016 19.2834C37.4734 17.7647 35.0836 16.7309 32.5894 16.3092L32.5893 16.3092C29.4493 15.7781 26.1453 16.2217 23.2548 17.5581L23.1866 17.5898L23.1865 17.5899C21.81 18.2342 20.5487 19.0727 19.5594 20.1441C18.4476 21.3492 17.7667 22.7999 17.5847 24.413L17.5805 24.4511C17.5804 24.4525 17.5802 24.4539 17.5801 24.4553C17.5602 24.6327 17.5496 24.8127 17.5452 25.0023L17.5443 25.064C17.5138 27.668 18.6212 29.2356 19.7183 30.1741C20.282 30.6563 20.8514 30.9779 21.2793 31.1781C21.4924 31.2777 21.6674 31.3459 21.785 31.388C21.8437 31.409 21.8878 31.4234 21.9149 31.4319C21.9284 31.4361 21.9376 31.4389 21.9422 31.4403C21.9443 31.4409 21.9454 31.4412 21.9455 31.4413C21.9455 31.4412 21.9452 31.4411 21.9445 31.441C21.9442 31.4409 21.9438 31.4408 21.9434 31.4407L21.9426 31.4404C22.4366 31.5773 22.7265 32.0885 22.5901 32.5827C22.4537 33.0773 21.9421 33.3676 21.4475 33.2311L21.7023 32.3079C21.6998 32.317 21.6972 32.3263 21.6946 32.3357C21.4486 33.2272 21.4471 33.231 21.4466 33.2309C21.4464 33.2308 21.4458 33.2307 21.4454 33.2306C21.4447 33.2303 21.4438 33.2301 21.4429 33.2298C21.441 33.2293 21.4388 33.2287 21.4362 33.228C21.4312 33.2265 21.4249 33.2247 21.4174 33.2225C21.4024 33.2181 21.3824 33.2121 21.358 33.2044C21.309 33.189 21.2418 33.1669 21.1589 33.1372C20.9932 33.0779 20.7638 32.988 20.4922 32.8609C19.9509 32.6077 19.2302 32.2015 18.5106 31.5859C17.0499 30.3363 15.627 28.246 15.6877 24.968L15.6878 24.9643C15.693 24.7313 15.7062 24.4933 15.7338 24.2478C15.9544 22.2098 16.8148 20.379 18.1941 18.884L18.1944 18.8838C19.3682 17.6126 20.8186 16.6557 22.327 15.9411L22.3989 15.9072Z" fill="#215BFA"/>
<path d="M23.9693 28.7056C26.0622 28.7056 27.7589 27.0089 27.7589 24.916C27.7589 22.8231 26.0622 21.1264 23.9693 21.1264C21.8763 21.1264 20.1797 22.8231 20.1797 24.916C20.1797 27.0089 21.8763 28.7056 23.9693 28.7056Z" fill="white"/>
<path d="M26.8299 24.9161C26.8299 23.3362 25.5491 22.0554 23.9692 22.0554C22.3894 22.0554 21.1086 23.3362 21.1086 24.9161C21.1086 26.4959 22.3894 27.7767 23.9692 27.7767C25.5491 27.7767 26.8299 26.4959 26.8299 24.9161ZM28.6878 24.9161C28.6878 27.522 26.5752 29.6346 23.9692 29.6346C21.3633 29.6346 19.2507 27.522 19.2507 24.9161C19.2507 22.3101 21.3633 20.1975 23.9692 20.1975C26.5752 20.1975 28.6878 22.3101 28.6878 24.9161Z" fill="#215BFA"/>
<path d="M25.5771 46.3649C25.5247 46.3101 22.3139 46.4269 22.2186 48.4372C22.1233 50.4618 24.7577 50.3451 24.8387 49.6043C24.9268 48.7945 25.6723 46.3887 25.6723 46.3887C25.6509 46.3911 25.7819 46.4149 25.9963 46.4673C26.6775 46.6388 28.2138 47.1343 28.2686 48.3657C28.3805 50.9453 24.3694 50.8286 25.3603 48.2847C25.4437 48.0751 25.4508 47.8584 25.508 47.6416C25.6414 47.1224 25.7867 46.6603 25.9963 46.4697" fill="white"/>
<path d="M25.4028 45.4271C25.4632 45.4259 25.5284 45.4262 25.5901 45.43C25.6182 45.4318 25.6667 45.4356 25.7222 45.4452C25.7478 45.4497 25.7975 45.4592 25.8573 45.4785C25.8914 45.4855 25.9252 45.4943 25.9582 45.505C25.9988 45.5141 26.0595 45.5276 26.1332 45.545L26.2168 45.5651L26.223 45.5666C26.593 45.6597 27.2606 45.8549 27.8616 46.2326C28.4562 46.6064 29.1391 47.2635 29.1953 48.2999L29.1966 48.3245L29.1966 48.3255C29.236 49.233 28.9051 49.9813 28.3453 50.4879C27.8072 50.9749 27.1081 51.1937 26.4583 51.1751C25.9944 51.1619 25.4942 51.0227 25.0843 50.7126C24.9323 50.8049 24.7827 50.8657 24.6688 50.9027C24.2472 51.0397 23.7507 51.0628 23.2804 50.9687C22.8053 50.8738 22.2838 50.6436 21.8844 50.1977C21.4696 49.7346 21.2566 49.1162 21.2906 48.3936V48.3933L21.2927 48.3556C21.3882 46.7667 22.7201 46.0453 23.6202 45.7454C24.108 45.5829 24.5841 45.4996 24.9403 45.4598C25.1194 45.4398 25.2779 45.4296 25.4028 45.4271ZM26.4804 47.6031C26.4644 47.6587 26.4483 47.7179 26.4317 47.7805L26.4077 47.8728C26.4072 47.8747 26.4066 47.8767 26.4061 47.8786C26.3901 47.9396 26.3842 47.9861 26.3582 48.1305C26.3367 48.25 26.3016 48.4294 26.2258 48.6219L26.2258 48.622C26.0572 49.0549 26.1651 49.1889 26.1679 49.1929C26.1923 49.227 26.2895 49.3117 26.5113 49.318C26.7264 49.3242 26.9472 49.2475 27.0987 49.1104C27.2285 48.9929 27.3568 48.7887 27.3405 48.4071L27.3395 48.3901C27.3256 48.2138 27.2148 48.0205 26.873 47.8056C26.75 47.7283 26.616 47.6611 26.4804 47.6031ZM24.3913 47.4518C24.3301 47.4689 24.2687 47.4876 24.2075 47.508C23.4723 47.753 23.1652 48.0861 23.1464 48.4812C23.1329 48.7707 23.2134 48.8968 23.2683 48.9581C23.3386 49.0366 23.4629 49.1106 23.6446 49.1469C23.7642 49.1708 23.8776 49.1718 23.9679 49.1615C24.0611 48.662 24.2393 47.9935 24.3913 47.4518Z" fill="#215BFA"/>
<path d="M36.0479 28.7056C38.1408 28.7056 39.8375 27.0089 39.8375 24.916C39.8375 22.8231 38.1408 21.1264 36.0479 21.1264C33.955 21.1264 32.2583 22.8231 32.2583 24.916C32.2583 27.0089 33.955 28.7056 36.0479 28.7056Z" fill="white"/>
<path d="M38.9085 24.9161C38.9085 23.3362 37.6278 22.0554 36.0479 22.0554C34.468 22.0554 33.1872 23.3362 33.1872 24.9161C33.1872 26.4959 34.468 27.7767 36.0479 27.7767C37.6278 27.7767 38.9085 26.4959 38.9085 24.9161ZM40.7664 24.9161C40.7664 27.522 38.6538 29.6346 36.0479 29.6346C33.4419 29.6346 31.3293 27.522 31.3293 24.9161C31.3294 22.3101 33.4419 20.1975 36.0479 20.1975C38.6538 20.1975 40.7664 22.3101 40.7664 24.9161Z" fill="#215BFA"/>
<path d="M30.0384 24.2612L30.0551 24.2613C30.0607 24.2614 30.0663 24.2616 30.0718 24.2618L30.0384 25.1901C30.0712 24.2781 30.072 24.2621 30.0723 24.2618C30.0724 24.2618 30.0726 24.2618 30.0728 24.2618C30.0732 24.2618 30.0736 24.2618 30.074 24.2619C30.0749 24.2619 30.0759 24.2619 30.077 24.262C30.0792 24.2621 30.0819 24.2622 30.085 24.2623C30.0914 24.2626 30.0996 24.263 30.1097 24.2635C30.1297 24.2646 30.1571 24.2662 30.1907 24.2686C30.2578 24.2734 30.351 24.2814 30.463 24.2946C30.6844 24.3206 30.991 24.368 31.3198 24.4549C31.6435 24.5404 32.0242 24.6733 32.3736 24.8862C32.7173 25.0956 33.0848 25.4162 33.2933 25.8965L33.3032 25.9195L33.3036 25.9205C33.5252 26.4508 33.4569 27.0772 33.3508 27.5584C33.2345 28.0863 33.0228 28.6526 32.76 29.1769C32.4978 29.7 32.1658 30.2189 31.7878 30.6363C31.4388 31.0217 30.9444 31.4387 30.3327 31.5529L30.3034 31.5581C30.2521 31.5668 30.2 31.5712 30.1479 31.5712H29.874C29.8219 31.5712 29.7699 31.5668 29.7185 31.5581C29.0936 31.452 28.589 31.0284 28.2341 30.637C27.856 30.2199 27.5236 29.7011 27.2612 29.1781C26.9982 28.6539 26.7863 28.0874 26.67 27.5591C26.5639 27.0773 26.4962 26.4504 26.7188 25.9195C26.9255 25.4264 27.2992 25.0989 27.6483 24.8862C27.9977 24.6733 28.3784 24.5404 28.7021 24.4549C29.031 24.368 29.3375 24.3206 29.559 24.2946C29.6709 24.2814 29.7641 24.2734 29.8312 24.2686C29.8649 24.2662 29.8922 24.2646 29.9122 24.2635C29.9223 24.263 29.9305 24.2626 29.9369 24.2623C29.94 24.2622 29.9427 24.2621 29.9449 24.262C29.946 24.2619 29.947 24.2619 29.9479 24.2619C29.9483 24.2618 29.9487 24.2618 29.9491 24.2618C29.9493 24.2618 29.9495 24.2618 29.9496 24.2618C29.9499 24.262 29.9506 24.2753 29.982 25.1483L29.9501 24.2618C29.9612 24.2614 29.9724 24.2612 29.9836 24.2612H30.0384ZM30.0061 26.1191C29.9967 26.1196 29.9825 26.1204 29.964 26.1217C29.9211 26.1248 29.8561 26.1303 29.7756 26.1398C29.6121 26.159 29.3966 26.193 29.1767 26.2511C28.9517 26.3105 28.757 26.3862 28.6149 26.4728C28.4726 26.5595 28.4387 26.6223 28.4322 26.6378C28.4416 26.6154 28.3968 26.7615 28.4844 27.1596C28.5619 27.5114 28.7146 27.9321 28.9217 28.3449C29.1294 28.7588 29.3728 29.1268 29.6105 29.3891C29.7287 29.5194 29.8325 29.6092 29.9156 29.6654C29.9512 29.6894 29.9785 29.7043 29.9975 29.7133H30.0243C30.0433 29.7043 30.0705 29.6895 30.1059 29.6655C30.1889 29.6093 30.2926 29.5195 30.4107 29.3892C30.6483 29.1268 30.8915 28.7585 31.0991 28.3443C31.3062 27.9313 31.4589 27.5103 31.5365 27.1584C31.6216 26.7727 31.5825 26.6236 31.5885 26.6351C31.5796 26.616 31.5422 26.5552 31.407 26.4728C31.2649 26.3862 31.0702 26.3105 30.8452 26.2511C30.6253 26.193 30.4098 26.159 30.2464 26.1398C30.1658 26.1303 30.1009 26.1248 30.058 26.1217C30.0395 26.1204 30.0252 26.1196 30.0158 26.1191H30.0061Z" fill="#215BFA"/>
<path d="M34.4424 46.3649C34.4948 46.3101 37.7056 46.4269 37.8008 48.4372C37.8961 50.4618 35.2617 50.3451 35.1808 49.6043C35.0926 48.7945 34.3471 46.3887 34.3471 46.3887C34.3685 46.3911 34.2375 46.4149 34.0232 46.4673C33.3419 46.6388 31.8056 47.1343 31.7508 48.3657C31.6389 50.9453 35.65 50.8286 34.6591 48.2847C34.5758 48.0751 34.5686 47.8584 34.5114 47.6416C34.3781 47.1224 34.2328 46.6603 34.0232 46.4697" fill="white"/>
<path d="M34.4293 45.43C34.4909 45.4262 34.5561 45.4259 34.6165 45.4271C34.7414 45.4296 34.9 45.4398 35.079 45.4598C35.4352 45.4996 35.9113 45.5829 36.3992 45.7454C37.2992 46.0453 38.6311 46.7667 38.7267 48.3556L38.7287 48.3933L38.7287 48.3936L38.7301 48.4274C38.756 49.1355 38.5432 49.7418 38.135 50.1977C37.7355 50.6436 37.2141 50.8738 36.7389 50.9687C36.2686 51.0628 35.7721 51.0397 35.3506 50.9027C35.2367 50.8657 35.0871 50.8049 34.935 50.7126C34.5251 51.0227 34.0249 51.1619 33.5611 51.1751C32.9112 51.1937 32.2121 50.9749 31.674 50.4879C31.1143 49.9813 30.7834 49.233 30.8227 48.3255L30.8228 48.3245C30.8695 47.2739 31.5584 46.6093 32.1577 46.2326C32.7587 45.8549 33.4263 45.6597 33.7963 45.5666L33.8025 45.5651L33.8862 45.545C33.9599 45.5276 34.0205 45.5141 34.0611 45.505C34.0942 45.4943 34.1279 45.4854 34.162 45.4785C34.2218 45.4592 34.2716 45.4497 34.2971 45.4452C34.3526 45.4356 34.4012 45.4318 34.4293 45.43ZM33.5389 47.6031C33.4033 47.6611 33.2693 47.7283 33.1464 47.8056C32.7935 48.0274 32.6869 48.2263 32.6788 48.4071L32.6788 48.407C32.6625 48.7887 32.7909 48.9929 32.9207 49.1104C33.0722 49.2475 33.2929 49.3242 33.508 49.318C33.7298 49.3117 33.827 49.227 33.8515 49.1929C33.8543 49.1889 33.9621 49.0549 33.7935 48.622V48.6219C33.7177 48.4294 33.6827 48.25 33.6612 48.1305C33.6384 48.0041 33.631 47.9527 33.6188 47.901L33.6132 47.8786L33.6117 47.8728C33.5866 47.7753 33.5625 47.6854 33.5389 47.6031ZM35.628 47.4518C35.78 47.9935 35.9582 48.662 36.0515 49.1615C36.1417 49.1718 36.2551 49.1708 36.3748 49.1469C36.5564 49.1106 36.6808 49.0366 36.751 48.9581C36.8059 48.8968 36.8865 48.7706 36.8729 48.4809V48.4809C36.854 48.0859 36.5468 47.7529 35.8118 47.508C35.7507 47.4876 35.6892 47.4689 35.628 47.4518Z" fill="#215BFA"/>
<path d="M24.5875 26.7774C25.3608 26.73 25.9411 25.9316 25.8836 24.9941C25.8261 24.0567 25.1526 23.3351 24.3793 23.3826C23.6059 23.43 23.0256 24.2284 23.0831 25.1659C23.1406 26.1034 23.8141 26.8249 24.5875 26.7774Z" fill="#215BFA"/>
<path d="M36.9027 25.1715C36.9602 24.234 36.3799 23.4356 35.6065 23.3881C34.8332 23.3407 34.1596 24.0622 34.1022 24.9997C34.0447 25.9372 34.625 26.7356 35.3983 26.783C36.1717 26.8304 36.8452 26.1089 36.9027 25.1715Z" fill="#215BFA"/>
<path d="M42.9982 23.1867C42.6743 23.1867 42.3647 23.0629 42.1289 22.8413C41.8835 22.6079 41.7406 22.2816 41.7358 21.9458L41.693 19.0875C41.6906 18.8945 41.7311 18.7016 41.8144 18.5277L42.3432 17.4106L42.298 12.8255C42.2956 12.4873 42.4218 12.1705 42.66 11.9299C42.8982 11.6893 43.2126 11.5536 43.5485 11.5512H43.5604C44.2487 11.5512 44.8156 12.1109 44.8228 12.8017L44.868 17.4106L45.3396 18.6016C45.3992 18.7493 45.4278 18.9065 45.4278 19.066V21.8791C45.4278 22.5603 44.8942 23.1153 44.213 23.1415L43.0459 23.1843C43.0316 23.1867 43.0149 23.1867 42.9982 23.1867Z" fill="#215BFA"/>
<path d="M43.5604 11.8848C44.0701 11.8848 44.4845 12.2944 44.4893 12.8042L44.5345 17.4751L45.03 18.7232C45.0729 18.8327 45.0943 18.9494 45.0943 19.0662V21.8792C45.0943 22.3794 44.6989 22.7891 44.2011 22.8081L43.034 22.851C43.022 22.851 43.0101 22.851 42.9982 22.851C42.76 22.851 42.5314 22.7605 42.3599 22.5961C42.1789 22.4246 42.0741 22.1864 42.0693 21.9363L42.0264 19.0781C42.024 18.9352 42.055 18.7946 42.1145 18.666L42.6743 17.4798L42.629 12.8185C42.6243 12.3064 43.0363 11.8848 43.5484 11.88C43.5532 11.8848 43.5556 11.8848 43.5604 11.8848ZM43.5604 11.2178C43.5556 11.2178 43.5484 11.2178 43.5437 11.2178C43.1173 11.2226 42.7195 11.3917 42.4218 11.6966C42.1241 12.0015 41.9621 12.404 41.9645 12.8304L42.0097 17.3393L41.5143 18.3873C41.4095 18.6065 41.3571 18.8518 41.3619 19.0947L41.4047 21.953C41.4119 22.3794 41.5929 22.7938 41.9026 23.0868C42.2003 23.3702 42.5909 23.5251 43.0006 23.5251C43.0197 23.5251 43.0411 23.5251 43.0602 23.5251L44.2249 23.4822C44.6394 23.4655 45.0276 23.294 45.3158 22.9939C45.604 22.6962 45.7612 22.3008 45.7612 21.8863V19.0733C45.7612 18.8708 45.7231 18.6731 45.6493 18.485L45.1991 17.3512L45.1538 12.8042C45.1491 12.3802 44.9823 11.9824 44.6798 11.6847C44.3821 11.3798 43.9819 11.2178 43.5604 11.2178Z" fill="white"/>
<path d="M30.0359 6.22293L44.9727 12.6397L39.7945 14.8287L39.8373 17.7822C33.8826 16.6866 30.0359 20.2284 30.0359 20.2284H29.9811C29.9811 20.2284 26.1343 16.6866 20.1796 17.7822L20.2225 14.8287L15.0466 12.6397L29.9835 6.22293H30.0359Z" fill="#215BFA"/>
<path d="M30.0358 5.29412L30.0595 5.29442C30.1775 5.29742 30.2939 5.3229 30.4025 5.36955L45.3393 11.7863C45.6814 11.9333 45.9027 12.2703 45.9016 12.6426C45.9005 13.0149 45.6773 13.3505 45.3344 13.4955L40.7324 15.4409L40.7662 17.7689C40.7702 18.047 40.6494 18.3123 40.437 18.4919C40.2245 18.6714 39.9428 18.7463 39.6692 18.696C36.9129 18.1888 34.6523 18.754 33.0768 19.4453C32.2876 19.7915 31.6729 20.1685 31.2597 20.4554C31.0534 20.5986 30.8983 20.7187 30.7978 20.8001C30.7476 20.8408 30.7111 20.8718 30.6888 20.8911C30.6777 20.9007 30.6701 20.9075 30.6661 20.911C30.6648 20.9122 30.6638 20.9131 30.6633 20.9135C30.6635 20.9134 30.6637 20.9132 30.664 20.9129C30.6641 20.9128 30.6644 20.9125 30.6645 20.9125L30.6645 20.9125C30.493 21.07 30.2687 21.1575 30.0358 21.1575H29.9811C29.7482 21.1575 29.5239 21.07 29.3524 20.9125V20.9125C29.3525 20.9125 29.3528 20.9128 29.3529 20.9129C29.3531 20.9131 29.3533 20.9133 29.3535 20.9135C29.353 20.913 29.3521 20.9122 29.3508 20.911C29.3468 20.9075 29.3392 20.9008 29.3281 20.8911C29.3058 20.8718 29.2693 20.8408 29.2191 20.8001C29.1187 20.7187 28.9636 20.5986 28.7573 20.4554C28.344 20.1685 27.7293 19.7915 26.9401 19.4453C25.3646 18.754 23.104 18.1888 20.3477 18.696C20.0741 18.7463 19.7924 18.6714 19.58 18.4919C19.3675 18.3123 19.2467 18.047 19.2507 17.7689L19.2845 15.4407L14.6848 13.4954C14.3419 13.3504 14.1187 13.0147 14.1177 12.6425C14.1166 12.2702 14.3379 11.9333 14.68 11.7863L29.6168 5.36955L29.6386 5.3605C29.7482 5.31668 29.8652 5.29412 29.9834 5.29412H30.0358ZM29.3541 20.914C29.354 20.9139 29.3539 20.9138 29.3536 20.9136C29.3536 20.9136 29.3535 20.9135 29.3535 20.9135C29.3538 20.9137 29.354 20.9139 29.3541 20.914ZM30.6633 20.9136C30.6631 20.9138 30.6629 20.9139 30.6629 20.914C30.6629 20.9139 30.6631 20.9138 30.6633 20.9135L30.6633 20.9136ZM17.4156 12.6332L20.5843 13.9732C20.9326 14.1205 21.1568 14.4642 21.1513 14.8423L21.1242 16.7103C23.8241 16.4382 26.0676 17.0336 27.6866 17.7439C28.6034 18.1462 29.3226 18.5862 29.8167 18.9292C29.8848 18.9765 29.9488 19.022 30.0084 19.0654C30.0681 19.022 30.1321 18.9765 30.2002 18.9292C30.6943 18.5862 31.4135 18.1462 32.3303 17.7439C33.9493 17.0336 36.1928 16.4382 38.8927 16.7103L38.8656 14.8423C38.8601 14.4642 39.0844 14.1205 39.4328 13.9732L42.6032 12.633L30.0096 7.22282L17.4156 12.6332Z" fill="#215BFA"/>
<path d="M7.49701 63.6368C7.45965 63.292 7.2993 63.0242 7.01596 62.8333C6.73263 62.6424 6.3481 62.547 5.86239 62.547C5.53235 62.547 5.25368 62.5897 5.02639 62.6752C4.7991 62.7578 4.62474 62.8732 4.50331 63.0214C4.385 63.1695 4.32584 63.3376 4.32584 63.5256C4.31961 63.6823 4.35542 63.8191 4.43326 63.9359C4.51421 64.0527 4.62474 64.1538 4.76485 64.2393C4.90496 64.3219 5.06687 64.3946 5.25057 64.4573C5.43427 64.5171 5.63043 64.5684 5.83903 64.6111L6.69838 64.7991C7.1156 64.8846 7.49857 64.9986 7.84729 65.141C8.19601 65.2835 8.49802 65.4587 8.75334 65.6667C9.00865 65.8746 9.20636 66.1197 9.34647 66.4017C9.4897 66.6838 9.56287 67.0071 9.56598 67.3718C9.56287 67.9074 9.41342 68.3718 9.11763 68.765C8.82495 69.1553 8.4015 69.4587 7.84729 69.6752C7.29619 69.8889 6.63144 69.9957 5.85305 69.9957C5.08088 69.9957 4.40835 69.8875 3.83545 69.6709C3.26567 69.4544 2.82043 69.1339 2.49973 68.7094C2.18214 68.2821 2.01557 67.7536 2 67.1239H3.95688C3.97868 67.4174 4.07053 67.6624 4.23243 67.859C4.39745 68.0527 4.61696 68.1994 4.89095 68.2991C5.16806 68.396 5.48097 68.4444 5.82969 68.4444C6.17219 68.4444 6.46953 68.3989 6.72173 68.3077C6.97705 68.2165 7.17476 68.0897 7.31487 67.9274C7.45498 67.765 7.52503 67.5783 7.52503 67.3675C7.52503 67.1709 7.46121 67.0057 7.33355 66.8718C7.20901 66.7379 7.02531 66.6239 6.78245 66.5299C6.5427 66.4359 6.24847 66.3504 5.89975 66.2735L4.85826 66.0342C4.05184 65.8547 3.41512 65.5741 2.94808 65.1923C2.48105 64.8105 2.24909 64.2963 2.2522 63.6496C2.24909 63.1197 2.40321 62.6567 2.71456 62.2607C3.02904 61.8647 3.46027 61.5556 4.00825 61.3333C4.55624 61.1111 5.17896 61 5.8764 61C6.58629 61 7.20589 61.1111 7.7352 61.3333C8.26762 61.5556 8.68173 61.8647 8.97752 62.2607C9.2733 62.6567 9.42587 63.1154 9.43521 63.6368H7.49701Z" fill="#215BFA"/>
<path d="M14.1301 70C13.4046 70 12.7772 69.859 12.2479 69.5769C11.7217 69.292 11.3154 68.896 11.029 68.3889C10.7425 67.8789 10.5993 67.2877 10.5993 66.6154C10.5993 65.9373 10.7425 65.3447 11.029 64.8376C11.3154 64.3276 11.7217 63.9316 12.2479 63.6496C12.7772 63.3647 13.4046 63.2222 14.1301 63.2222C14.8555 63.2222 15.4814 63.3647 16.0076 63.6496C16.5369 63.9316 16.9448 64.3276 17.2312 64.8376C17.5177 65.3447 17.6609 65.9373 17.6609 66.6154C17.6609 67.2877 17.5177 67.8789 17.2312 68.3889C16.9448 68.896 16.5369 69.292 16.0076 69.5769C15.4814 69.859 14.8555 70 14.1301 70ZM14.1394 68.5897C14.4695 68.5897 14.745 68.5043 14.9661 68.3333C15.1871 68.1595 15.3537 67.9231 15.4658 67.6239C15.581 67.3248 15.6386 66.9843 15.6386 66.6026C15.6386 66.2208 15.581 65.8803 15.4658 65.5812C15.3537 65.2821 15.1871 65.0456 14.9661 64.8718C14.745 64.698 14.4695 64.6111 14.1394 64.6111C13.8063 64.6111 13.5261 64.698 13.2988 64.8718C13.0746 65.0456 12.9049 65.2821 12.7897 65.5812C12.6776 65.8803 12.6216 66.2208 12.6216 66.6026C12.6216 66.9843 12.6776 67.3248 12.7897 67.6239C12.9049 67.9231 13.0746 68.1595 13.2988 68.3333C13.5261 68.5043 13.8063 68.5897 14.1394 68.5897Z" fill="#215BFA"/>
<path d="M25.4113 63.3077L22.9034 69.8718H20.6616L18.1536 63.3077H20.2553L21.7451 68.0043H21.8198L23.305 63.3077H25.4113Z" fill="#215BFA"/>
<path d="M26.4668 61.1197H28.9608L31.5949 67H31.707L34.3411 61.1197H36.835V69.8718H34.8735V64.1752H34.7941L32.3188 69.8291H30.9831L28.5078 64.1538H28.4284V69.8718H26.4668V61.1197Z" fill="#215BFA"/>
<path d="M40.5094 69.9957C40.0517 69.9957 39.6439 69.9231 39.2858 69.7778C38.9277 69.6296 38.6444 69.4117 38.4358 69.1239C38.2303 68.8333 38.1276 68.4715 38.1276 68.0385C38.1276 67.6738 38.2007 67.3675 38.3471 67.1197C38.4934 66.8718 38.6927 66.6724 38.9449 66.5214C39.1971 66.3704 39.4835 66.2564 39.8042 66.1795C40.128 66.1026 40.4674 66.0484 40.8224 66.0171C41.2396 65.9772 41.5758 65.9402 41.8312 65.906C42.0865 65.8689 42.2717 65.8148 42.3869 65.7436C42.5021 65.6724 42.5597 65.567 42.5597 65.4274V65.4017C42.5597 65.1311 42.4663 64.9217 42.2795 64.7735C42.0958 64.6254 41.8343 64.5513 41.4949 64.5513C41.1368 64.5513 40.8519 64.6239 40.6402 64.7692C40.4285 64.9117 40.2884 65.0912 40.2199 65.3077L38.3798 65.1709C38.4732 64.7721 38.6569 64.4274 38.9309 64.1368C39.2049 63.8433 39.5582 63.6182 39.991 63.4615C40.4269 63.302 40.9313 63.2222 41.5042 63.2222C41.9028 63.2222 42.2842 63.265 42.6485 63.3504C43.0159 63.4359 43.3412 63.5684 43.6246 63.7479C43.911 63.9274 44.1367 64.1581 44.3018 64.4402C44.4668 64.7194 44.5493 65.0541 44.5493 65.4444V69.8718H42.6625V68.9615H42.6064C42.4912 69.1667 42.3371 69.3476 42.1441 69.5043C41.951 69.6581 41.7191 69.7792 41.4482 69.8675C41.1773 69.953 40.8644 69.9957 40.5094 69.9957ZM41.0792 68.7393C41.3719 68.7393 41.6303 68.6866 41.8545 68.5812C42.0787 68.4729 42.2546 68.3276 42.3823 68.1453C42.5099 67.963 42.5737 67.7564 42.5737 67.5256V66.8291C42.5115 66.8661 42.4258 66.9003 42.3169 66.9316C42.211 66.9601 42.0911 66.9872 41.9572 67.0128C41.8234 67.0356 41.6895 67.057 41.5556 67.0769C41.4217 67.094 41.3003 67.1097 41.1913 67.1239C40.9578 67.1553 40.7539 67.2051 40.5795 67.2735C40.4051 67.3419 40.2697 67.4345 40.1732 67.5513C40.0767 67.6652 40.0284 67.8077 40.0284 67.9786C40.0284 68.2265 40.1265 68.416 40.3226 68.547C40.5219 68.6752 40.7741 68.7393 41.0792 68.7393Z" fill="#215BFA"/>
<path d="M49.9085 63.3077V64.6752H45.5885V63.3077H49.9085ZM46.5692 61.735H48.5588V67.8547C48.5588 68.0228 48.5868 68.1538 48.6429 68.2479C48.6989 68.339 48.7767 68.4031 48.8764 68.4402C48.9791 68.4772 49.0975 68.4957 49.2313 68.4957C49.3247 68.4957 49.4181 68.4886 49.5116 68.4744C49.605 68.4573 49.6766 68.4444 49.7264 68.4359L50.0393 69.7906C49.9397 69.8191 49.7996 69.8519 49.619 69.8889C49.4384 69.9288 49.2189 69.953 48.9604 69.9615C48.481 69.9786 48.0606 69.9202 47.6995 69.7863C47.3414 69.6524 47.0627 69.4444 46.8635 69.1624C46.6642 68.8803 46.5661 68.5242 46.5692 68.094V61.735Z" fill="#215BFA"/>
<path d="M53.3483 66.0769V69.8718H51.3587V61.1197H53.2922V64.4658H53.3763C53.5382 64.0783 53.7997 63.7749 54.1609 63.5556C54.5221 63.3333 54.9751 63.2222 55.52 63.2222C56.0181 63.2222 56.4525 63.3219 56.823 63.5214C57.1966 63.7179 57.4862 64.0014 57.6917 64.3718C57.9003 64.7393 58.003 65.1795 57.9999 65.6923V69.8718H56.0104V66.0171C56.0135 65.6125 55.9014 65.2977 55.6741 65.0726C55.4499 64.8476 55.1354 64.735 54.7307 64.735C54.4598 64.735 54.2201 64.7877 54.0114 64.8932C53.806 64.9986 53.644 65.1524 53.5257 65.3547C53.4105 65.5541 53.3514 65.7949 53.3483 66.0769Z" fill="#215BFA"/>
</svg>
