<svg width="25" height="25" viewBox="0 0 25 25" fill="none" xmlns="http://www.w3.org/2000/svg">
<path d="M9.80999 4.40222C10.9499 1.46741 11.5199 0 12.5 0C13.4801 0 14.0501 1.46741 15.19 4.40222L15.2431 4.53888C15.8871 6.19691 16.2091 7.02592 16.8654 7.5298C17.5216 8.03369 18.3831 8.11336 20.106 8.27272L20.4175 8.30153C23.2374 8.56233 24.6473 8.69273 24.949 9.61909C25.2506 10.5455 24.2036 11.5292 22.1095 13.4968L21.4105 14.1534C20.3505 15.1495 19.8204 15.6475 19.5734 16.3002C19.5273 16.4219 19.489 16.5467 19.4587 16.6736C19.2963 17.354 19.4515 18.0765 19.7619 19.5214L19.8586 19.9711C20.4291 22.6266 20.7143 23.9543 20.2163 24.527C20.0302 24.741 19.7883 24.8951 19.5196 24.9708C18.8005 25.1734 17.7796 24.3143 15.7378 22.5961C14.397 21.4679 13.7267 20.9037 12.957 20.7768C12.6542 20.7269 12.3458 20.7269 12.043 20.7768C11.2733 20.9037 10.603 21.4679 9.26224 22.5961C7.22042 24.3143 6.19951 25.1734 5.48042 24.9708C5.21172 24.8951 4.96984 24.741 4.78373 24.527C4.28568 23.9543 4.57093 22.6266 5.14143 19.9711L5.23806 19.5214C5.54848 18.0765 5.7037 17.354 5.54131 16.6736C5.51102 16.5467 5.47271 16.4219 5.42662 16.3002C5.17958 15.6475 4.64953 15.1495 3.58945 14.1534L2.89054 13.4968C0.796416 11.5292 -0.250647 10.5455 0.0510412 9.61909C0.352729 8.69273 1.76264 8.56233 4.58247 8.30153L4.89396 8.27272C6.61691 8.11336 7.47838 8.03369 8.13464 7.5298C8.7909 7.02592 9.1129 6.19691 9.75691 4.53888L9.80999 4.40222Z" fill="#2849F3"/>
</svg>
